<?xml version="1.0" encoding="UTF-8"?>
<svg width="18px" height="18px" viewBox="0 0 18 18" version="1.1" xmlns="http://www.w3.org/2000/svg" xmlns:xlink="http://www.w3.org/1999/xlink">
    <!-- Generator: Sketch 63.1 (92452) - https://sketch.com -->
    <title>ico-assembly</title>
    <desc>Created with Sketch.</desc>
    <g id="UI" stroke="none" stroke-width="1" fill="none" fill-rule="evenodd">
        <g id="UI-homepage-03" transform="translate(-523.000000, -1891.000000)" fill="#FF5620" fill-rule="nonzero">
            <g id="OUR-SERVICE" transform="translate(100.000000, 904.000000)">
                <g id="ADDITIONAL-SERVICES" transform="translate(102.000000, 780.000000)">
                    <g id="Group-38" transform="translate(308.000000, 194.000000)">
                        <g id="Group-37">
                            <path d="M29.844611,29.576247 C29.178319,30.3810008 27.9815508,30.4228921 27.2596976,29.7023618 L19.5750715,22.0274369 C19.2932974,21.7456628 18.8580689,21.6940704 18.5150013,21.8960305 C17.510933,22.4864773 16.1964283,22.3511023 15.3339085,21.4899054 L15.0247949,21.1816737 L13.2869675,19.0134684 C12.8702594,18.4935754 12.9117097,17.7435007 13.383097,17.2729953 L13.7861354,16.8708388 C13.9581102,16.699305 14.2367975,16.699305 14.4092133,16.8708388 L16.0773688,18.5359076 C17.4077482,18.5032765 18.5132374,17.3999921 18.5463095,16.0718175 L16.8790359,14.4080716 C16.7061792,14.2356559 16.7061792,13.9560866 16.8790359,13.7836708 L17.2807514,13.3828373 C17.7525797,12.9118909 18.5030953,12.8704406 19.0238703,13.2862668 L21.1969261,15.0214484 L21.5055988,15.3296801 C22.3681186,16.190436 22.5039346,17.502295 21.9126058,18.5041584 C21.7102047,18.8467851 21.7622381,19.2820137 22.0435713,19.5633468 L29.675282,27.1853564 C30.320408,27.8291595 30.4249157,28.874678 29.844611,29.576247 Z M30.8707287,16.0021457 L29.4058563,14.5372732 C29.2753318,14.4067487 29.0773403,14.3714718 28.9093342,14.44864 L25.5359824,16.0039095 C25.4178049,16.0585887 25.3296127,16.1622145 25.2952177,16.2874474 L24.5641044,18.9446785 L23.6147153,19.8936266 L25.5170211,21.7906408 L26.4633234,20.8443385 L29.1205545,20.1127842 C29.2457874,20.0783892 29.3498542,19.990197 29.4040924,19.8724604 L30.9593619,16.4986678 C31.036971,16.3311026 31.0012532,16.1331111 30.8707287,16.0021457 L30.8707287,16.0021457 Z M15.2745438,30.1201172 C15.9785356,30.8236706 17.1198007,30.8236706 17.8237926,30.1201172 L21.9465499,25.9967098 L19.397664,23.4477822 L15.2745438,27.5711896 C14.5705519,28.2751064 14.5705519,29.4162003 15.2745438,30.1201172 Z" id="ico-assembly"></path>
                        </g>
                    </g>
                </g>
            </g>
        </g>
    </g>
</svg>