<?xml version="1.0" encoding="UTF-8"?>
<svg width="20px" height="20px" viewBox="0 0 20 20" version="1.1" xmlns="http://www.w3.org/2000/svg" xmlns:xlink="http://www.w3.org/1999/xlink">
    <!-- Generator: Sketch 63.1 (92452) - https://sketch.com -->
    <title>ico-transport</title>
    <desc>Created with Sketch.</desc>
    <g id="UI" stroke="none" stroke-width="1" fill="none" fill-rule="evenodd">
        <g id="UI-homepage-03" transform="translate(-522.000000, -1983.000000)" fill="#FF5620" fill-rule="nonzero">
            <g id="OUR-SERVICE" transform="translate(100.000000, 904.000000)">
                <g id="ADDITIONAL-SERVICES" transform="translate(102.000000, 780.000000)">
                    <g id="Group-38" transform="translate(308.000000, 194.000000)">
                        <g id="Group-36" transform="translate(0.000000, 94.000000)">
                            <path d="M30.75,23.0515005 C31.4403559,23.0515005 32,23.6111445 32,24.3015005 L32,24.3015005 L32,28.0515005 C31.9989009,28.6721257 31.5426111,29.1979588 30.9283333,29.2865005 C30.826064,29.3013822 30.7501631,29.3889875 30.75,29.4923338 L30.75,29.4923338 L30.75,30.1323338 C30.75,30.5925711 30.376904,30.9656671 29.9166667,30.9656671 C29.4564294,30.9656671 29.0833333,30.5925711 29.0833333,30.1323338 L29.0833333,30.1323338 L29.0833333,29.5073338 C29.0833333,29.3922745 28.9900593,29.2990005 28.875,29.2990005 L28.875,29.2990005 L16.7916667,29.2990005 C16.6766073,29.2990005 16.5833333,29.3922745 16.5833333,29.5073338 L16.5833333,29.5073338 L16.5833333,30.1348338 C16.5833333,30.5950711 16.2102373,30.9681671 15.75,30.9681671 C15.2897627,30.9681671 14.9166667,30.5950711 14.9166667,30.1348338 L14.9166667,30.1348338 L14.9166667,29.5098338 C14.9166667,29.3947745 14.8233927,29.3015005 14.7083333,29.3015005 L14.7083333,29.3015005 L13.25,29.3015005 C12.5596441,29.3015005 12,28.7418564 12,28.0515005 L12,28.0515005 L12,26.3848338 C12,25.6944779 12.5596441,25.1348338 13.25,25.1348338 L13.25,25.1348338 L15.9583333,25.1348338 C16.0733927,25.1348338 16.1666667,25.0415598 16.1666667,24.9265005 L16.1666667,24.9265005 L16.1666667,24.3015005 C16.1666667,23.6111445 16.7263107,23.0515005 17.4166667,23.0515005 L17.4166667,23.0515005 Z M20.5558333,11.8748338 C20.77628,11.2559206 21.438228,10.9132952 22.0708333,11.0906671 C23.5061336,11.4992501 24.4971659,12.8091805 24.4999976,14.3015005 C24.4999976,15.2219751 25.2461921,15.9681671 26.1666667,15.9681671 C28.9267578,15.9713816 31.1634522,18.208076 31.1666667,20.9681671 L31.1666667,20.9681671 L31.1666667,21.3848338 C31.1666667,21.6149525 30.9801186,21.801501 30.75,21.801501 L30.75,21.801501 L26.0625,21.801501 C26.0576938,21.801501 26.0532364,21.7989964 26.0508333,21.7948338 C26.0352501,21.7684014 26.018282,21.7428102 25.9999976,21.7181671 L25.9999976,21.7181671 L22.25,16.7181671 C22.0713672,16.4799901 21.7792377,16.3552049 21.483654,16.3908169 C21.1880702,16.4264289 20.9339383,16.6170278 20.8169873,16.8908169 C20.7000363,17.1646059 20.7380339,17.4799901 20.9166667,17.7181671 L20.9166667,17.7181671 L23.7291667,21.4681671 C23.7765132,21.5312958 23.784129,21.6157566 23.748839,21.6863366 C23.713549,21.7569166 23.6414108,21.801501 23.5625,21.801501 L23.5625,21.801501 L17.4166667,21.801501 C17.2799396,21.801501 17.151913,21.7344205 17.0740866,21.6220046 C16.9962602,21.5095887 16.9785387,21.3661437 17.0266667,21.2381671 L17.0266667,21.2381671 Z" id="ico-transport"></path>
                        </g>
                    </g>
                </g>
            </g>
        </g>
    </g>
</svg>