<?xml version="1.0" encoding="UTF-8"?>
<svg width="16px" height="16px" viewBox="0 0 16 16" version="1.1" xmlns="http://www.w3.org/2000/svg" xmlns:xlink="http://www.w3.org/1999/xlink">
    <!-- Generator: Sketch 63.1 (92452) - https://sketch.com -->
    <title>ico-material</title>
    <desc>Created with Sketch.</desc>
    <g id="UI" stroke="none" stroke-width="1" fill="none" fill-rule="evenodd">
        <g id="UI-homepage-03" transform="translate(-934.000000, -1891.000000)" fill="#FF5620" fill-rule="nonzero">
            <g id="OUR-SERVICE" transform="translate(100.000000, 904.000000)">
                <g id="ADDITIONAL-SERVICES" transform="translate(102.000000, 780.000000)">
                    <g id="Group-39" transform="translate(718.000000, 194.000000)">
                        <g id="Group-34">
                            <path d="M29,15 C29.5522847,15 30,15.4477153 30,16 L30,16 L30,28 C30,28.5522847 29.5522847,29 29,29 L29,29 L19.566,29 C19.5006668,29 19.4413111,28.9619818 19.4141787,28.9025489 C19.3870463,28.8431159 19.3971413,28.773311 19.44,28.724 C20.016379,28.0609439 20.3336508,27.2118867 20.3333333,26.3333333 L20.3333333,26.3333333 L20.3333333,15.3333333 C20.3333333,15.1492384 20.4825718,15 20.6666667,15 L20.6666667,15 Z M16.6666667,13 C18.139426,13 19.3333333,14.1939073 19.3333333,15.6666667 L19.3333333,15.6666667 L19.3333333,26.3333333 C19.3333333,27.8060927 18.139426,29 16.6666667,29 C15.1939073,29 14,27.8060927 14,26.3333333 L14,26.3333333 L14,15.6666667 C14,14.1939073 15.1939073,13 16.6666667,13 Z M16.6666667,24.6666667 C15.7461921,24.6666667 15,25.4128588 15,26.3333333 C15,27.2538079 15.7461921,28 16.6666667,28 C17.5871412,28 18.3333333,27.2538079 18.3333333,26.3333333 C18.3333333,25.4128588 17.5871412,24.6666667 16.6666667,24.6666667 Z M16.6666667,25.3333333 C17.2189514,25.3333333 17.6666667,25.7810486 17.6666667,26.3333333 C17.6666667,26.8856181 17.2189514,27.3333333 16.6666667,27.3333333 C16.1143819,27.3333333 15.6666667,26.8856181 15.6666667,26.3333333 C15.6666667,25.7810486 16.1143819,25.3333333 16.6666667,25.3333333 Z M22.3333333,25.6666667 C21.9651435,25.6666667 21.6666667,25.9651435 21.6666667,26.3333333 C21.6666667,26.7015232 21.9651435,27 22.3333333,27 C22.7015232,27 23,26.7015232 23,26.3333333 C23,25.9651435 22.7015232,25.6666667 22.3333333,25.6666667 Z M25,25.6666667 C24.6318102,25.6666667 24.3333333,25.9651435 24.3333333,26.3333333 C24.3333333,26.7015232 24.6318102,27 25,27 C25.3681898,27 25.6666667,26.7015232 25.6666667,26.3333333 C25.6666667,25.9651435 25.3681898,25.6666667 25,25.6666667 Z M27.6666667,25.6666667 C27.2984768,25.6666667 27,25.9651435 27,26.3333333 C27,26.7015232 27.2984768,27 27.6666667,27 C28.0348565,27 28.3333333,26.7015232 28.3333333,26.3333333 C28.3333333,25.9651435 28.0348565,25.6666667 27.6666667,25.6666667 Z M22.3333333,22.6666667 C21.9651435,22.6666667 21.6666667,22.9651435 21.6666667,23.3333333 C21.6666667,23.7015232 21.9651435,24 22.3333333,24 C22.7015232,24 23,23.7015232 23,23.3333333 C23,22.9651435 22.7015232,22.6666667 22.3333333,22.6666667 Z M25,22.6666667 C24.6318102,22.6666667 24.3333333,22.9651435 24.3333333,23.3333333 C24.3333333,23.7015232 24.6318102,24 25,24 C25.3681898,24 25.6666667,23.7015232 25.6666667,23.3333333 C25.6666667,22.9651435 25.3681898,22.6666667 25,22.6666667 Z M27.6666667,22.6666667 C27.2984768,22.6666667 27,22.9651435 27,23.3333333 C27,23.7015232 27.2984768,24 27.6666667,24 C28.0348565,24 28.3333333,23.7015232 28.3333333,23.3333333 C28.3333333,22.9651435 28.0348565,22.6666667 27.6666667,22.6666667 Z M22.3333333,19.6666667 C21.9651435,19.6666667 21.6666667,19.9651435 21.6666667,20.3333333 C21.6666667,20.7015232 21.9651435,21 22.3333333,21 C22.7015232,21 23,20.7015232 23,20.3333333 C23,19.9651435 22.7015232,19.6666667 22.3333333,19.6666667 Z M25,19.6666667 C24.6318102,19.6666667 24.3333333,19.9651435 24.3333333,20.3333333 C24.3333333,20.7015232 24.6318102,21 25,21 C25.3681898,21 25.6666667,20.7015232 25.6666667,20.3333333 C25.6666667,19.9651435 25.3681898,19.6666667 25,19.6666667 Z M27.6666667,19.6666667 C27.2984768,19.6666667 27,19.9651435 27,20.3333333 C27,20.7015232 27.2984768,21 27.6666667,21 C28.0348565,21 28.3333333,20.7015232 28.3333333,20.3333333 C28.3333333,19.9651435 28.0348565,19.6666667 27.6666667,19.6666667 Z M22.3333333,16.6666667 C21.9651435,16.6666667 21.6666667,16.9651435 21.6666667,17.3333333 C21.6666667,17.7015232 21.9651435,18 22.3333333,18 C22.7015232,18 23,17.7015232 23,17.3333333 C23,16.9651435 22.7015232,16.6666667 22.3333333,16.6666667 Z M25,16.6666667 C24.6318102,16.6666667 24.3333333,16.9651435 24.3333333,17.3333333 C24.3333333,17.7015232 24.6318102,18 25,18 C25.3681898,18 25.6666667,17.7015232 25.6666667,17.3333333 C25.6666667,16.9651435 25.3681898,16.6666667 25,16.6666667 Z M27.6666667,16.6666667 C27.2984768,16.6666667 27,16.9651435 27,17.3333333 C27,17.7015232 27.2984768,18 27.6666667,18 C28.0348565,18 28.3333333,17.7015232 28.3333333,17.3333333 C28.3333333,16.9651435 28.0348565,16.6666667 27.6666667,16.6666667 Z" id="ico-material"></path>
                        </g>
                    </g>
                </g>
            </g>
        </g>
    </g>
</svg>