<?xml version="1.0" encoding="UTF-8"?>
<svg width="22px" height="22px" viewBox="0 0 22 22" version="1.1" xmlns="http://www.w3.org/2000/svg" xmlns:xlink="http://www.w3.org/1999/xlink">
    <!-- Generator: Sketch 63.1 (92452) - https://sketch.com -->
    <title>ico-no-parking</title>
    <desc>Created with Sketch.</desc>
    <g id="UI" stroke="none" stroke-width="1" fill="none" fill-rule="evenodd">
        <g id="UI-homepage-03" transform="translate(-213.000000, -1982.000000)" fill="#FF5620" fill-rule="nonzero">
            <g id="OUR-SERVICE" transform="translate(100.000000, 904.000000)">
                <g id="ADDITIONAL-SERVICES" transform="translate(102.000000, 780.000000)">
                    <g id="Group-40" transform="translate(0.000000, 194.000000)">
                        <g id="Group-32" transform="translate(0.000000, 94.000000)">
                            <path d="M13.6089993,16.3229913 L19.2909993,22.0059913 L19.4935425,23.39905 C19.4951586,23.4104865 19.491944,23.4217941 19.485121,23.4305314 L19.4723332,23.4414046 L19.4480165,23.4463234 L19.4480165,23.4463234 L19.4252148,23.4365469 L17.9661697,22.1624863 L17.8760697,22.0911054 C17.5631328,21.8787616 17.1335795,21.9219448 16.870011,22.2087325 C16.6064425,22.4955201 16.5995933,22.9271842 16.8375409,23.2211237 L16.9162571,23.3048912 L16.9162571,23.3098908 L19.6351973,26.9270895 L19.7719848,27.0585922 C20.1494363,27.3930217 20.6253726,27.5962199 21.1279726,27.637523 L21.3175572,27.645363 L23.1324061,27.645363 C23.7258134,27.6450938 24.178461,27.4951911 24.5193582,27.2335472 L27.6869993,30.4019913 L26.5529545,31.5208736 C26.2813333,31.7898035 25.9263474,31.9552727 25.5491986,31.9921452 L25.386385,32.0000012 L18.5477879,31.9908344 L18.3836777,31.982871 C18.0578653,31.9508149 17.7486863,31.8228863 17.4954772,31.6153616 L17.373719,31.5050416 L12.4999583,26.6512791 C12.2235059,26.3786142 12.0528932,26.0188696 12.0148003,25.6359065 L12.006666,25.4705441 L11.9999996,18.6377799 C11.9997804,18.2541527 12.1325741,17.8841252 12.3729359,17.5893986 L12.4824597,17.4678773 L13.6089993,16.3229913 Z M13.1611652,10.2469517 L16.4009517,13.4869517 L17.3712192,12.5016243 C17.6467007,12.2259855 18.0082053,12.0561124 18.3926418,12.0181246 L18.5586203,12.0099949 L25.3913846,12.0099949 C25.7797032,12.0091851 26.154113,12.1446716 26.4507637,12.3898899 L26.5729528,12.5016243 L31.5083751,17.4603779 C31.7814352,17.7326973 31.9494591,18.0905568 31.986429,18.4710227 L31.9941737,18.6352801 L31.9941737,25.4680444 C31.9925175,25.8585923 31.8545225,26.2344276 31.6069453,26.5320389 L31.4942096,26.6546122 L30.5239517,27.6089517 L32.9601551,30.0459415 L31.5459415,31.4601551 L11.7469517,11.6611652 L13.1611652,10.2469517 Z M25.638063,20.1734375 L25.5697031,20.2626446 L24.6399517,21.7259517 L25.8819517,22.9679517 L26.8920929,21.0725771 L26.9404944,20.971146 C27.0753317,20.6266167 26.9473684,20.2264027 26.6228597,20.0276487 C26.2983509,19.8288948 25.8836955,19.8967676 25.638063,20.1734375 Z M24.0024228,17.0142075 C23.771256,17.0884177 23.590096,17.2656056 23.5091296,17.4904269 L23.4807104,17.5895339 L22.9309517,20.0169517 L24.3529517,21.4379517 L24.9989173,17.9178398 L25.0150198,17.8012659 C25.0293604,17.5680478 24.937707,17.3381232 24.7615262,17.1783605 C24.5559819,16.9919706 24.2666133,16.9293958 24.0024228,17.0142075 Z M21.8350141,15.7555199 C21.4426945,15.7555199 21.1184665,16.0470547 21.0671529,16.4253012 L21.0600786,16.5304554 L21.0599517,18.1459517 L22.6089517,19.6949517 L22.6099496,16.5304554 C22.6099496,16.1024704 22.2629991,15.7555199 21.8350141,15.7555199 Z" id="ico-no-parking"></path>
                        </g>
                    </g>
                </g>
            </g>
        </g>
    </g>
</svg>