<?xml version="1.0" encoding="UTF-8"?>
<svg width="18px" height="19px" viewBox="0 0 18 19" version="1.1" xmlns="http://www.w3.org/2000/svg" xmlns:xlink="http://www.w3.org/1999/xlink">
    <!-- Generator: Sketch 63.1 (92452) - https://sketch.com -->
    <title>ico-box</title>
    <desc>Created with Sketch.</desc>
    <g id="UI" stroke="none" stroke-width="1" fill="none" fill-rule="evenodd">
        <g id="UI-homepage-03" transform="translate(-215.000000, -1891.000000)" fill="#FF5620" fill-rule="nonzero">
            <g id="OUR-SERVICE" transform="translate(100.000000, 904.000000)">
                <g id="ADDITIONAL-SERVICES" transform="translate(102.000000, 780.000000)">
                    <g id="Group-40" transform="translate(0.000000, 194.000000)">
                        <g id="Group-33">
                            <path d="M22.4061385,13.0861884 L24.873,14.182 L17.5999999,18.2229616 L17.5999999,22.811365 L19.5999999,23.811365 L19.5999999,19.3997683 L27.16,15.199 L30.4061385,16.641744 C30.7672665,16.8022453 31,17.1603668 31,17.5555556 L31,26.3172792 C31,26.6804463 30.8031081,27.0150669 30.4856429,27.1914364 L22.4856429,31.6358809 C22.1836204,31.8036712 21.8163796,31.8036712 21.5143571,31.6358809 L13.5143571,27.1914364 C13.1968919,27.0150669 13,26.6804463 13,26.3172792 L13,17.5555556 C13,17.1603668 13.2327335,16.8022453 13.5938615,16.641744 L21.5938615,13.0861884 C21.8524269,12.9712705 22.1475731,12.9712705 22.4061385,13.0861884 Z" id="ico-box"></path>
                        </g>
                    </g>
                </g>
            </g>
        </g>
    </g>
</svg>