<?xml version="1.0" encoding="UTF-8"?>
<svg width="18px" height="18px" viewBox="0 0 18 18" version="1.1" xmlns="http://www.w3.org/2000/svg" xmlns:xlink="http://www.w3.org/1999/xlink">
    <!-- Generator: Sketch 63.1 (92452) - https://sketch.com -->
    <title>ico-volume</title>
    <desc>Created with Sketch.</desc>
    <g id="UI" stroke="none" stroke-width="1" fill="none" fill-rule="evenodd">
        <g id="UI-homepage-03" transform="translate(-728.000000, -2521.000000)" fill="#FF5620">
            <g id="Group-2" transform="translate(100.000000, 2216.000000)">
                <g id="Group-9-Copy" transform="translate(615.000000, 74.000000)">
                    <g id="Group-40-Copy" transform="translate(0.000000, 218.000000)">
                        <g id="Group-33">
                            <path d="M19.000075,13 C22.3141,13 24.999925,14.678725 24.999925,16.750075 C24.999925,18.7121934 22.5893785,20.3221301 19.5178216,20.4861619 L19.328,20.493 L19.328125,20.499925 L31,20.499925 L31,31 L29.499925,31 L29.49925,25.750075 L27.999175,25.750075 L28.000075,31 L26.5,31 L26.499325,23.500075 L24.99925,23.500075 L24.999925,31 L23.500075,31 L23.499175,25.750075 L21.999325,25.750075 L22,31 L20.499925,31 L20.49925,23.500075 L18.999175,23.500075 L19.000075,31 C18.48055,31 17.9806,30.95455 17.5,30.876925 L17.5,30.876925 L17.499325,25.750075 L15.99925,25.750075 L15.999925,30.49465 C14.208475,29.84575 13,28.637275 13,27.249925 L13,27.249925 L13,16.750075 C13,14.678725 15.685825,13 19.000075,13 Z M19.000075,14.500075 C16.51405,14.500075 14.500075,15.5065 14.500075,16.750075 C14.500075,17.9923 16.51405,19.000075 19.000075,19.000075 C21.485875,19.000075 23.500075,17.9923 23.500075,16.750075 C23.500075,15.5065 21.485875,14.500075 19.000075,14.500075 Z M19.000075,15.625075 C20.6568878,15.625075 22,16.1287547 22,16.750075 C22,17.3713953 20.6568878,17.875075 19.000075,17.875075 C17.3432622,17.875075 16.00015,17.3713953 16.00015,16.750075 C16.00015,16.1287547 17.3432622,15.625075 19.000075,15.625075 Z" id="ico-volume"></path>
                        </g>
                    </g>
                </g>
            </g>
        </g>
    </g>
</svg>