<?xml version="1.0" encoding="UTF-8"?>
<svg width="21px" height="21px" viewBox="0 0 21 21" version="1.1" xmlns="http://www.w3.org/2000/svg" xmlns:xlink="http://www.w3.org/1999/xlink">
    <!-- Generator: Sketch 63.1 (92452) - https://sketch.com -->
    <title>ico-payment</title>
    <desc>Created with Sketch.</desc>
    <g id="UI" stroke="none" stroke-width="1" fill="none" fill-rule="evenodd">
        <g id="UI-homepage-03" transform="translate(-727.000000, -2608.000000)" fill="#FF5620">
            <g id="Group-2" transform="translate(100.000000, 2216.000000)">
                <g id="Group-9-Copy" transform="translate(615.000000, 74.000000)">
                    <g id="Group-40-Copy-3" transform="translate(0.000000, 307.000000)">
                        <g id="Group-33">
                            <g id="monetization-touch-coin" transform="translate(12.000000, 11.000000)">
                                <g id="Group-59">
                                    <g id="monetization-touch-coin">
                                        <g id="Group-59">
                                            <path d="M13.5625,10.9375 C14.2873737,10.9375 14.875,11.5251263 14.875,12.25 L14.875,12.25 L14.875,15.7500024 C14.875,15.8708147 14.9729377,15.9687524 15.09375,15.9687524 L15.09375,15.9687524 L17.5,15.9687524 C19.4329966,15.9687524 21.0000899,17.7545034 21.0000899,19.6875 L21.0000899,19.6875 L21.0000899,20.78125 C21.0002338,20.8393375 20.977262,20.8951133 20.9361877,20.9361877 C20.8951133,20.977262 20.8393375,21.0002338 20.78125,21.0000048 L20.78125,21.0000048 L10.598875,21.0000048 C10.5371225,21.0004111 10.4781679,20.9742798 10.437,20.92825 C8.51241176,18.8093088 8.48135986,18.7738002 8.47998921,18.7718482 L8.39628768,18.6563575 C8.04040267,18.1051591 8.14564194,17.3636534 8.66198648,16.9354161 C9.21521276,16.4765905 10.0345738,16.5480651 10.5,17.09575 L10.5,17.09575 L11.86675,18.659375 C11.9268206,18.7279061 12.0230844,18.7520162 12.1083656,18.7198897 C12.1936467,18.6877632 12.2500763,18.6061316 12.25,18.515 L12.25,18.515 L12.25,12.25 C12.25,11.5251263 12.8376263,10.9375 13.5625,10.9375 Z M7.4375,-5.32907052e-14 C9.41004764,-5.32907052e-14 11.3018049,0.7835915 12.6966067,2.17839331 C14.0914085,3.57319513 14.875,5.46495236 14.875,7.4375 C14.875,8.11028075 14.7856703,8.76219743 14.6182248,9.38203616 C14.2528778,9.22422208 13.8511731,9.1375 13.4292133,9.1375 C11.7648382,9.1375 10.4155955,10.4867426 10.4155955,12.1511178 L10.4159657,14.2546197 C9.50401429,14.6536239 8.49660972,14.875 7.4375,14.875 C3.32988217,14.875 -5.32907052e-14,11.5451178 -5.32907052e-14,7.4375 C-5.32907052e-14,3.32988217 3.32988217,-5.32907052e-14 7.4375,-5.32907052e-14 Z M6.16393075,3.95057862 C5.0186129,4.36718799 4.15459531,5.31643316 3.84242946,6.48526907 L3.793125,6.69375 L3.346875,6.69375 C3.16716672,6.69375 3.01723113,6.82122205 2.98255518,6.99067922 L2.975,7.065625 L2.975,7.809375 C2.975,7.98908328 3.10247205,8.13901887 3.27192922,8.17369482 L3.346875,8.18125 L3.793125,8.18125 C4.04736457,9.4585709 4.95129578,10.5098097 6.17610317,10.9525662 C7.40091056,11.3953226 8.76808938,11.1650689 9.7803125,10.3455625 C9.861844,10.2792236 9.91286237,10.1825572 9.921625,10.0778125 C9.92836086,9.99796756 9.906832,9.91920051 9.86220185,9.85459201 L9.8100625,9.7951875 L9.415875,9.3935625 C9.2850467,9.25913877 9.07458617,9.2431948 8.925,9.356375 C8.49945174,9.68528998 7.97530858,9.86087794 7.4375,9.8546875 C6.45464314,9.84877338 5.57927444,9.25118666 5.20996736,8.35309303 L5.14675,8.18125 L7.8316875,8.18125 C8.0115401,8.18015707 8.17818819,8.09374498 8.28298253,7.95178415 L8.33,7.8763125 L8.7836875,6.9615 C8.81411469,6.90588997 8.81411469,6.83861003 8.7836875,6.783 C8.75875058,6.742027 8.71933364,6.7128222 8.67420618,6.70039675 L8.6275,6.69375 L5.14675,6.69375 C5.46586151,5.71362316 6.36978199,5.04239509 7.4003125,5.0203125 C7.93812108,5.01412206 8.46226424,5.18971002 8.8878125,5.518625 C9.01602922,5.6156366 9.18896996,5.61778146 9.31815243,5.53176277 L9.3786875,5.4814375 L9.772875,5.0798125 C9.8521514,5.00819108 9.89341864,4.90364742 9.8844375,4.7971875 C9.87567487,4.6924428 9.8246565,4.59577641 9.743125,4.5294375 C8.7313026,3.72855401 7.37662023,3.50946282 6.16393075,3.95057862 Z" id="ico-payment"></path>
                                        </g>
                                    </g>
                                </g>
                            </g>
                        </g>
                    </g>
                </g>
            </g>
        </g>
    </g>
</svg>