<svg xmlns="http://www.w3.org/2000/svg" id="Logos" viewBox="32.40 36.00 259.30 72.60" width="100"><style>.st0{fill:#1c1c1c}.st1{fill:#e95525}.st2{fill:#fff}</style><path class="st0" d="M288.8 81.1v-6.6c0-4.7-1.4-8.2-4.2-10.5-2.8-2.3-6.9-3.5-12.2-3.5-5.3 0-10.1 1.3-14.3 3.8l3.1 6.7c1.5-1 3-1.7 4.4-2.3 2.8-1.1 8.1-1.6 10.4.3 1.8 1.5 1.6 3.6 1.6 5.8-1.1-.5-3-1.6-7.4-1.6-3.6 0-7.4.9-10.2 3.1-2.5 2-4 4.8-4 8 0 1.5.3 2.9.9 4.1 1.9 4.2 6.1 6.3 10.5 6.3 5.2 0 8.7-2.5 11.8-6.6.6 3.1.8 6.6 7.2 6.6 1.7 0 3.6-.3 5.3-.6v-9.5c-2.1-.1-2.9-1.1-2.9-3.5zm-11.3 1.8c0 2.5-3.8 4.2-6.5 4.2-2.4 0-4.5-1.4-4.5-3.7 0-2.5 2.7-5.2 8.2-4.1 1.2.2 2 .5 2.8.8v2.8zM165 62.4l-1.8 5.6v26.2h11.3v-33h-9zM210.8 64.7c-1.8-3.2-4.8-4.1-8.2-4.1-2.9 0-5.4.5-7.5 1.4-3.5 1.6-4.7 3.8-5.8 5.5v-6.2h-10.1v33h11.3V75.5c1.1-2.7 3.8-5.2 6.4-5.2 2.2 0 4.2 1.7 4.2 5.3v18.6h11.3V72.3c0-4.1-.8-6.2-1.6-7.6zM252.1 61.2h-9.7v6.4c-1.3-2.2-3.5-7-11.4-7-4.5 0-8.3 1.8-11 4.8-3 3.3-4.3 7.8-4.3 12.3 0 9.7 6.1 16.6 14.3 16.6 7.7 0 9.6-4.6 10.8-6.8 0 4.2.2 6.1-.7 8.2-.9 2.2-2.6 3.7-4.8 4.4-4.6 1.4-9.7-.3-13.4-3.5l-5.8 6c4.5 4.4 9.7 6 15.9 6 11.3 0 20.2-6 20.2-17-.1-7.4-.1-30.4-.1-30.4zm-11.3 20.5c-1.6 2.4-3.6 3.8-6.4 3.8-4.1 0-7.2-2.9-7.2-7.5 0-3 1.2-5.9 4-7.4 2.2-1.2 4.7-.8 6.7.8 1.2 1 2.2 2.3 2.8 3.9v6.4zM131.2 75.6l6.2 18.6h12.7l6.1-18.2 5-14.9h-11.5l-5.9 21-5.9-21h-10.8c3 4.5 4.4 9.7 4.1 14.5zM86.3 94.2H75V75.6c0-2.9-1.1-5.3-3.9-5.3-2.6 0-5.1 2.6-6.1 5.2v18.8H53.7V75.6c0-3-1.1-5.3-3.9-5.3-2.6 0-5.1 2.6-6.1 5.2v18.8H32.4v-33h10.1v6.2c2.6-4.4 5.9-6.9 13-6.9 5.2 0 7.8 2.2 9 6.5 2.4-4 6.1-6.5 12.2-6.5 3.3 0 6.2 1 7.9 4.1 1.2 2.2 1.6 5.1 1.6 7.7v21.8z"></path><path class="st1" d="M168.7 36c-5.7 0-9.7 5.1-8.9 10.2.7 5.5 8.9 11.5 8.9 11.5 3.6-2.7 9-7.9 9-12.6 0-5-4-9.1-9-9.1zm0 12.7c-2.2 0-4-1.8-4-4s1.8-4 4-4 4 1.8 4 4-1.8 4-4 4zM122.2 61.4c-3.6-3.9-8.7-6.4-14.4-6.4-8.1 0-15.1 5-18 12 .7 3 .5 6.5.5 15.6 4.9 10 17.5 19.2 17.5 19.2 7.7-5.8 19.5-17.1 19.5-27.3-.1-5.1-2-9.7-5.1-13.1zM107.7 83c-5 0-9.1-4.1-9.1-9.1s4.1-9.1 9.1-9.1 9.1 4.1 9.1 9.1-4 9.1-9.1 9.1z"></path></svg>
