<?xml version="1.0" encoding="UTF-8"?>
<svg width="19px" height="17px" viewBox="0 0 19 17" version="1.1" xmlns="http://www.w3.org/2000/svg" xmlns:xlink="http://www.w3.org/1999/xlink">
    <!-- Generator: Sketch 63.1 (92452) - https://sketch.com -->
    <title>ico-consult</title>
    <desc>Created with Sketch.</desc>
    <g id="UI" stroke="none" stroke-width="1" fill="none" fill-rule="evenodd">
        <g id="UI-homepage-03" transform="translate(-1035.000000, -2522.000000)" fill="#FF5620">
            <g id="Group-2" transform="translate(100.000000, 2216.000000)">
                <g id="Group-9-Copy" transform="translate(615.000000, 74.000000)">
                    <g id="Group-40-Copy-2" transform="translate(307.000000, 218.000000)">
                        <g id="Group-33">
                            <path d="M27.74445,18.01735 C29.804775,19.10725 31.2,21.18445 31.2,23.575075 C31.2,24.8749 30.785325,26.0827 30.077925,27.09115 L30.077925,27.09115 L31.14285,29.662675 C31.301025,30.04585 31.119225,30.483475 30.73695,30.64255 C30.545025,30.72175 30.34005,30.71635 30.16275,30.64255 L30.16275,30.64255 L27.174525,29.4046 C26.340225,29.752675 25.420425,29.94955 24.45,29.94955 C22.794675,29.94955 21.28965,29.376025 20.117625,28.441825 C24.588375,28.355425 28.200075,24.862975 28.200075,20.574925 C28.200075,19.678525 28.034475,18.82015 27.74445,18.01735 Z M19.75,14 C23.4787,14 26.5,16.853675 26.5,20.37515 C26.5,23.89505 23.4787,26.750075 19.75,26.750075 C18.779575,26.750075 17.859775,26.55275 17.02615,26.205125 L17.02615,26.205125 L14.03725,27.442625 C13.85995,27.516875 13.654975,27.521825 13.463725,27.442625 C13.08055,27.284 12.898975,26.845925 13.05715,26.46275 L13.05715,26.46275 L14.122075,23.89145 C13.414675,22.883 13,21.674525 13,20.37515 C13,16.8539 16.021975,14 19.75,14 Z" id="ico-consult"></path>
                        </g>
                    </g>
                </g>
            </g>
        </g>
    </g>
</svg>