<svg xmlns="http://www.w3.org/2000/svg" viewBox="0 0 89.44 115.05"><g id="Layer_2" data-name="Layer 2"><g id="Outlined"><path d="M17.84,11.5S21.06,7,26.46,6.87c.76,3.69,3.63,3.33,3.9,3.7,0,0,.47-9.24-6.24-9.24S17.84,11.5,17.84,11.5Z" style="fill:#ffb3a4;fill-rule:evenodd"/><polygon points="76.24 94.53 71.07 91.38 65.9 94.53 65.9 75.5 76.24 75.5 76.24 94.53" style="fill:#ffb3a4;fill-rule:evenodd"/><path d="M24.12,23c4.29,0,7.65-5.05,7.65-11.5,0-3.14,0-11.5-7.65-11.5s-7.65,8.36-7.65,11.5C16.47,18,19.83,23,24.12,23Zm0-20.34c3,0,5,1.5,5,8.84,0,4.79-2.28,8.84-5,8.84s-5-4.05-5-8.84C19.13,4.16,21.13,2.66,24.12,2.66Z" style="fill:#ff5722"/><path d="M44.86,36.91C44.72,35,43,25.78,24.12,25.78c-18.27,0-20.27,8.53-20.45,11.09L0,71.21a4.51,4.51,0,0,0,4.2,5,4.52,4.52,0,0,0,4.81-4l.88-8,.67,44a6.79,6.79,0,0,0,13.57.12l.08-2.45.1,2.49a6.8,6.8,0,0,0,13.59-.16l.67-44,.89,8a4.53,4.53,0,0,0,9-1ZM30,28.83c-.61,1.23-2.86,2.39-5.89,2.39s-5.27-1.16-5.88-2.4a43,43,0,0,1,5.88-.38A41.53,41.53,0,0,1,30,28.83ZM9.61,42.77,6.4,71.9a1.88,1.88,0,0,1-2,1.66A1.84,1.84,0,0,1,3.1,72.9a1.89,1.89,0,0,1-.43-1.41L6.32,37.1c.22-3.17,3-6.5,9.9-7.93.66,2.14,3.4,3.75,6.9,4V63.62H12.57L12.26,42.9A1.33,1.33,0,0,0,11,41.59,1.32,1.32,0,0,0,9.61,42.77Zm25.66,65.39a4.14,4.14,0,0,1-8.28.1l-1.25-32a1.6,1.6,0,0,0-1.59-1.53h0a1.59,1.59,0,0,0-1.59,1.54L21.5,108.23a4.13,4.13,0,0,1-8.25-.07L12.6,65.62H35.92ZM45.42,72.9a1.84,1.84,0,0,1-1.31.66,1.87,1.87,0,0,1-2-1.66L38.91,42.77a1.31,1.31,0,0,0-1.38-1.18,1.33,1.33,0,0,0-1.27,1.31L36,63.62H25.12V33.18c3.5-.26,6.24-1.87,6.91-4,7.06,1.47,10,4.9,10.18,7.95v.05l3.64,34.32A1.81,1.81,0,0,1,45.42,72.9Z" style="fill:#ff5722"/><path d="M87.94,74H54.19a1.5,1.5,0,0,0-1.5,1.5v38a1.5,1.5,0,0,0,1.5,1.5H87.94a1.5,1.5,0,0,0,1.5-1.5v-38A1.5,1.5,0,0,0,87.94,74Zm-1.5,10h-9.2V77h9.2ZM71.59,90.53l-.09,0-.09,0a1,1,0,0,0-.34-.07,1.09,1.09,0,0,0-.35.07l-.09,0s0,0-.08,0L66.9,92.75V77h8.34V92.75ZM64.9,77v7H55.69V77Zm-9.21,9H64.9v8.51a1,1,0,0,0,1.52.85l3.65-2.22v18.89H55.69Zm16.38,26V93.16l3.65,2.22a1,1,0,0,0,.52.15,1.05,1.05,0,0,0,.49-.13,1,1,0,0,0,.51-.87V86h9.2v26Z" style="fill:#ff5722"/></g></g></svg>