<svg xmlns="http://www.w3.org/2000/svg" viewBox="0 0 163.31 81.83"><g id="Layer_2" data-name="Layer 2"><g id="Outlined"><path d="M42.82,37.24a8.57,8.57,0,1,1,8.57-8.57,8.58,8.58,0,0,1-8.57,8.57M26,19.76A19.37,19.37,0,0,1,62.17,29.4c0,10.06-11.66,21.31-19.35,27.09,0,0-12.62-9.29-17.43-19.25" style="fill:#ffb3a4;fill-rule:evenodd"/><path d="M49,65.11a5.34,5.34,0,1,0,5.34,5.34A5.35,5.35,0,0,0,49,65.11Zm0,8.68a3.34,3.34,0,1,1,3.34-3.34A3.35,3.35,0,0,1,49,73.79Z" style="fill:#ff5722"/><path d="M141.92,65.11a5.34,5.34,0,1,0,5.34,5.34A5.35,5.35,0,0,0,141.92,65.11Zm0,8.68a3.34,3.34,0,1,1,3.34-3.34A3.35,3.35,0,0,1,141.92,73.79Z" style="fill:#ff5722"/><path d="M163.29,64.41l-.75-10.54A6.51,6.51,0,0,0,160,49.16l-16.92-13c-.12-.09-.23-.19-.34-.29L114.24,7.63a6.51,6.51,0,0,0-4.59-1.88H2.45a1.5,1.5,0,0,0,0,3h107.2a3.51,3.51,0,0,1,2.48,1l12,11.93H114a2.7,2.7,0,0,0-2.69,2.69v12.5A2.7,2.7,0,0,0,114,39.57h8.9l9.84,5.13h7.41a2.71,2.71,0,0,0,2.69-2.64l0-2.25,10.37,7.95a5.31,5.31,0,0,0-2.77,2,2.45,2.45,0,0,0-.16,2.18c1,2.46,6.69,4.42,9.45,5.23l.37,5.25H149.92a11.36,11.36,0,0,0-19.18,6H60.22a11.37,11.37,0,0,0-22.36,0H32.22A3.51,3.51,0,0,1,29,66.18l-2.56-6.4a3.51,3.51,0,0,1-.25-1.43l.33-9.29h94.07a1,1,0,1,0,0-2h-94L27.75,14a1.5,1.5,0,1,0-3-.1l-1.6,44.36a6.55,6.55,0,0,0,.46,2.66l2.56,6.4a6.5,6.5,0,0,0,6,4.09h5.49a11.37,11.37,0,0,0,22.66,0h70.22a11.37,11.37,0,0,0,22.66,0h3.54a6.51,6.51,0,0,0,6.5-7ZM140.16,42.7h-6.92l-9.84-5.13H114a.69.69,0,0,1-.69-.69V24.38a.69.69,0,0,1,.69-.69h12.17L140.64,38l.27.23L140.85,42A.7.7,0,0,1,140.16,42.7Zm12,8.47a.46.46,0,0,1,0-.45c.36-.61,1.77-1.15,3-1.46l3,2.28a3.53,3.53,0,0,1,1.37,2.54l.07.9C156.08,53.87,152.62,52.29,152.19,51.17ZM49,78.83a8.38,8.38,0,1,1,8.38-8.38A8.39,8.39,0,0,1,49,78.83Zm92.88,0a8.38,8.38,0,1,1,8.38-8.38A8.39,8.39,0,0,1,141.92,78.83Zm17.45-11.56a3.51,3.51,0,0,1-2.58,1.12h-3.68a11.29,11.29,0,0,0-1.59-4h8.76l0,.26A3.48,3.48,0,0,1,159.37,67.27Z" style="fill:#ff5722"/><path d="M65.76,63.37a1,1,0,0,0,1,1h57a1,1,0,0,0,0-2h-57A1,1,0,0,0,65.76,63.37Z" style="fill:#ff5722"/><path d="M68.32,2H10.71a1,1,0,0,1,0-2H68.32a1,1,0,0,1,0,2Z" style="fill:#ffb3a4"/><path d="M17.84,14.93H7.18a1,1,0,0,1,0-2H17.84a1,1,0,0,1,0,2Z" style="fill:#ffb3a4"/><path d="M21.37,70.89H10.71a1,1,0,1,1,0-2H21.37a1,1,0,1,1,0,2Z" style="fill:#ffb3a4"/><path d="M18.71,65.63H1a1,1,0,0,1,0-2H18.71a1,1,0,0,1,0,2Z" style="fill:#ffb3a4"/></g></g></svg>