<svg xmlns="http://www.w3.org/2000/svg" viewBox="0 0 112.53 132.12"><g id="Layer_2" data-name="Layer 2"><g id="Outlined"><path d="M79.75,78.69V98.51c2.42,0,4.39-1.11,4.39-2.49,0,1.38,2,2.49,4.4,2.49S92.93,97.4,92.93,96c0,1.38,2,2.49,4.4,2.49V78.69Z" style="fill:#ffb3a4;fill-rule:evenodd"/><path d="M15.2,78.69V98.51c2.42,0,4.39-1.11,4.39-2.49,0,1.38,2,2.49,4.4,2.49S28.38,97.4,28.38,96c0,1.38,2,2.49,4.4,2.49V78.69Z" style="fill:#ffb3a4;fill-rule:evenodd"/><path d="M15.2,47.65S24,29.35,24,17.66H15.2Z" style="fill:#ffb3a4;fill-rule:evenodd"/><path d="M32.78,47.65S24,29.35,24,17.66h8.79Z" style="fill:#ffb3a4;fill-rule:evenodd"/><path d="M47.47,47.65s8.79-18.3,8.79-30H47.47Z" style="fill:#ffb3a4;fill-rule:evenodd"/><path d="M65.05,47.65s-8.79-18.3-8.79-30h8.79Z" style="fill:#ffb3a4;fill-rule:evenodd"/><path d="M79.75,47.65s8.79-18.3,8.79-30H79.75Z" style="fill:#ffb3a4;fill-rule:evenodd"/><path d="M97.33,47.65s-8.79-18.3-8.79-30h8.79Z" style="fill:#ffb3a4;fill-rule:evenodd"/><path d="M72,85.61C72,78,65,71.77,56.26,71.77S40.54,78,40.54,85.61Z" style="fill:#ffb3a4;fill-rule:evenodd"/><path d="M32.78,16.66H15.2a1,1,0,0,0-1,1v30a1,1,0,0,0,1,1H32.78a1,1,0,0,0,1-1v-30A1,1,0,0,0,32.78,16.66Zm-1,30H16.2v-28H31.78Z" style="fill:#ff5722"/><path d="M97.33,16.66H79.75a1,1,0,0,0-1,1v30a1,1,0,0,0,1,1H97.33a1,1,0,0,0,1-1v-30A1,1,0,0,0,97.33,16.66Zm-1,30H80.75v-28H96.33Z" style="fill:#ff5722"/><path d="M32.78,77.47H15.2a1,1,0,0,0-1,1v30a1,1,0,0,0,1,1H32.78a1,1,0,0,0,1-1v-30A1,1,0,0,0,32.78,77.47Zm-1,30H16.2v-28H31.78Z" style="fill:#ff5722"/><path d="M97.33,77.47H79.75a1,1,0,0,0-1,1v30a1,1,0,0,0,1,1H97.33a1,1,0,0,0,1-1v-30A1,1,0,0,0,97.33,77.47Zm-1,30H80.75v-28H96.33Z" style="fill:#ff5722"/><path d="M65.05,16.66H47.47a1,1,0,0,0-1,1v30a1,1,0,0,0,1,1H65.05a1,1,0,0,0,1-1v-30A1,1,0,0,0,65.05,16.66Zm-1,30H48.47v-28H64.05Z" style="fill:#ff5722"/><path d="M112.3.7A1.53,1.53,0,0,0,111,0H1.5A1.5,1.5,0,0,0,.15,2.15L3,8.07V130.62a1.5,1.5,0,0,0,1.5,1.5H108a1.5,1.5,0,0,0,1.5-1.5V8.07l2.85-5.92A1.53,1.53,0,0,0,112.3.7ZM6,8.73H106.53V62.06H6ZM108.64,3l-1.8,3.73H5.68L3.89,3ZM71,87.5v25.79H66V86.61h4.92C71,86.91,71,87.2,71,87.5Zm-29.45,0c0-.3,0-.59,0-.89h4.93v26.68h-5ZM64,113H48.51V86.61H64Zm1-28.43H41.83a14.72,14.72,0,0,1,28.87,0ZM40.9,115.29H71.63l16.83,13.83H24.07Zm50.7,13.83L73,113.81V87.5a16.73,16.73,0,1,0-33.45,0v26.31L20.92,129.12H6V64.06H106.53v65.06Z" style="fill:#ff5722"/></g></g></svg>