<svg xmlns="http://www.w3.org/2000/svg" width="76.089" height="30.777" viewBox="0 0 76.089 30.777">
  <g id="ICON-Klarna" transform="translate(38.044 15.389)">
    <g id="Lager_2" data-name="Lager 2" transform="translate(-38.044 -15.389)">
      <g id="Layer_1" data-name="Layer 1">
        <rect id="Rectangle_699" data-name="Rectangle 699" width="76.089" height="30.777" rx="5.305" fill="#ffb3c7"/>
        <path id="Path_5513" data-name="Path 5513" d="M153.71,35.427a4.713,4.713,0,1,0,0,7.789v.571h2.674V34.856H153.71Zm-2.432,6.193a2.3,2.3,0,1,1,2.423-2.3A2.363,2.363,0,0,1,151.278,41.62Z" transform="translate(-92.78 -21.941)"/>
        <rect id="Rectangle_700" data-name="Rectangle 700" width="2.799" height="12.912" transform="translate(21.459 8.934)"/>
        <path id="Path_5514" data-name="Path 5514" d="M123.985,34.618a3.247,3.247,0,0,0-2.754,1.247V34.859h-2.663V43.79h2.695V39.1a1.884,1.884,0,0,1,2.008-2.023c1.175,0,1.851.7,1.851,2V43.79h2.671V38.11A3.536,3.536,0,0,0,123.985,34.618Z" transform="translate(-75.171 -21.944)"/>
        <path id="Path_5515" data-name="Path 5515" d="M76.631,35.427a4.713,4.713,0,1,0,0,7.789v.571H79.3V34.856H76.631ZM74.2,41.62a2.3,2.3,0,1,1,2.423-2.3,2.363,2.363,0,0,1-2.423,2.3Z" transform="translate(-43.913 -21.941)"/>
        <path id="Path_5516" data-name="Path 5516" d="M103.258,36.447V35.284H100.52v8.931h2.744v-4.17c0-1.407,1.525-2.163,2.583-2.163h.032v-2.6A3.333,3.333,0,0,0,103.258,36.447Z" transform="translate(-63.729 -22.369)"/>
        <path id="Path_5517" data-name="Path 5517" d="M178.628,51.032a1.678,1.678,0,1,0,1.678,1.678,1.678,1.678,0,0,0-1.678-1.678Z" transform="translate(-112.185 -32.354)"/>
        <path id="Path_5518" data-name="Path 5518" d="M41.151,24.4h-2.9a7.417,7.417,0,0,1-3,5.986l-1.149.86,4.452,6.071h3.66l-4.1-5.586A10.275,10.275,0,0,0,41.151,24.4Z" transform="translate(-21.621 -15.471)"/>
        <rect id="Rectangle_701" data-name="Rectangle 701" width="2.905" height="12.918" transform="translate(9.222 8.932)"/>
      </g>
    </g>
  </g>
</svg>
