<svg xmlns="http://www.w3.org/2000/svg" width="63.481" height="49.381" viewBox="0 0 63.481 49.381">
  <g id="ICON-Mastercard" transform="translate(31.741 24.69)">
    <g id="Group_1630" data-name="Group 1630" transform="translate(-31.741 -24.69)">
      <g id="Group_1629" data-name="Group 1629">
        <path id="Path_5498" data-name="Path 5498" d="M15.433,98.479V95.21a1.94,1.94,0,0,0-1.8-2.069,2.059,2.059,0,0,0-.249,0,2.017,2.017,0,0,0-1.831.926,1.914,1.914,0,0,0-1.722-.926,1.724,1.724,0,0,0-1.526.774V93.27H7.173v5.209H8.317V95.591a1.218,1.218,0,0,1,1.039-1.374,1.2,1.2,0,0,1,.236-.01c.752,0,1.133.491,1.133,1.373v2.9H11.87V95.591a1.228,1.228,0,0,1,1.275-1.384c.774,0,1.144.491,1.144,1.373v2.9ZM32.367,93.27H30.515V91.69H29.37v1.58H28.313v1.035H29.37v2.376c0,1.209.469,1.929,1.809,1.929a2.659,2.659,0,0,0,1.417-.4l-.327-.97a2.091,2.091,0,0,1-1,.294c-.567,0-.752-.349-.752-.872V94.305h1.853Zm9.666-.131a1.537,1.537,0,0,0-1.373.763V93.27H39.538v5.209h1.133V95.558c0-.86.37-1.34,1.112-1.34a1.838,1.838,0,0,1,.708.131l.348-1.068a2.427,2.427,0,0,0-.806-.142Zm-14.613.545a3.9,3.9,0,0,0-2.125-.545c-1.318,0-2.168.632-2.168,1.667,0,.85.632,1.373,1.8,1.537l.534.076c.621.087.915.251.915.545,0,.4-.414.632-1.188.632a2.775,2.775,0,0,1-1.732-.545l-.534.882a3.756,3.756,0,0,0,2.256.676c1.5,0,2.376-.708,2.376-1.7,0-.916-.686-1.4-1.82-1.558l-.534-.077c-.491-.065-.882-.163-.882-.512,0-.381.37-.61.992-.61a3.358,3.358,0,0,1,1.624.447Zm30.359-.545a1.538,1.538,0,0,0-1.373.763V93.27H55.284v5.209h1.133V95.558c0-.86.37-1.34,1.112-1.34a1.838,1.838,0,0,1,.708.131l.348-1.068a2.427,2.427,0,0,0-.806-.142Zm-14.6,2.735A2.632,2.632,0,0,0,45.7,98.612c.086,0,.172,0,.258,0a2.728,2.728,0,0,0,1.874-.621l-.545-.916a2.292,2.292,0,0,1-1.362.469,1.67,1.67,0,0,1,0-3.335,2.291,2.291,0,0,1,1.362.469l.545-.916a2.73,2.73,0,0,0-1.874-.621,2.632,2.632,0,0,0-2.777,2.478c0,.085-.006.171,0,.257Zm10.614,0v-2.6H52.658V93.9a1.977,1.977,0,0,0-1.645-.763,2.739,2.739,0,0,0,0,5.471,1.975,1.975,0,0,0,1.645-.763v.632h1.133Zm-4.217,0a1.565,1.565,0,1,1,0,.126C49.57,95.959,49.571,95.916,49.574,95.875ZM35.9,93.139a2.738,2.738,0,0,0,.076,5.471,3.164,3.164,0,0,0,2.136-.73l-.556-.839a2.481,2.481,0,0,1-1.515.545,1.447,1.447,0,0,1-1.559-1.275H38.35c.011-.141.022-.283.022-.436A2.5,2.5,0,0,0,35.9,93.139Zm-.022,1.014a1.294,1.294,0,0,1,1.318,1.264h-2.7a1.341,1.341,0,0,1,1.384-1.264Zm28.431,1.722v-4.7H63.174V93.9a1.978,1.978,0,0,0-1.646-.763,2.739,2.739,0,0,0,0,5.471,1.975,1.975,0,0,0,1.646-.763v.632h1.133ZM66.2,97.724a.518.518,0,0,1,.2.041.533.533,0,0,1,.167.111.525.525,0,0,1,.113.165.509.509,0,0,1,0,.4.536.536,0,0,1-.113.165.542.542,0,0,1-.167.111.516.516,0,0,1-.2.041.527.527,0,0,1-.489-.317.509.509,0,0,1,0-.4.517.517,0,0,1,.281-.276.534.534,0,0,1,.209-.041Zm0,.921a.387.387,0,0,0,.156-.032.405.405,0,0,0,.127-.657.393.393,0,0,0-.127-.086.386.386,0,0,0-.156-.031.407.407,0,0,0-.16.031.4.4,0,0,0-.128.086.405.405,0,0,0,0,.571.4.4,0,0,0,.128.087.4.4,0,0,0,.16.032Zm.03-.646a.221.221,0,0,1,.143.041.138.138,0,0,1,.05.112.13.13,0,0,1-.04.1.191.191,0,0,1-.114.048l.157.182H66.3l-.146-.18h-.047v.18H66V98Zm-.119.09v.128h.118a.112.112,0,0,0,.065-.016.054.054,0,0,0,.024-.049.052.052,0,0,0-.024-.048.115.115,0,0,0-.065-.016ZM60.09,95.875a1.559,1.559,0,1,1,0,.126C60.086,95.959,60.087,95.916,60.09,95.875Zm-38.271,0v-2.6H20.685V93.9a1.977,1.977,0,0,0-1.645-.763,2.739,2.739,0,0,0,0,5.471,1.975,1.975,0,0,0,1.645-.763v.632h1.133Zm-4.217,0a1.565,1.565,0,1,1,0,.126c0-.042,0-.084,0-.126Z" transform="translate(-3.885 -49.379)" fill="#231f20"/>
        <g id="Group_1628" data-name="Group 1628">
          <rect id="Rectangle_698" data-name="Rectangle 698" width="17.165" height="30.847" transform="translate(23.159 4.195)" fill="#ff5f00"/>
          <path id="Path_5499" data-name="Path 5499" d="M24.249,19.618A19.583,19.583,0,0,1,31.742,4.2a19.618,19.618,0,1,0,0,30.847A19.584,19.584,0,0,1,24.249,19.618Z" transform="translate(0 0)" fill="#eb001b"/>
          <path id="Path_5500" data-name="Path 5500" d="M100.979,19.618a19.617,19.617,0,0,1-31.74,15.424,19.62,19.62,0,0,0,0-30.847,19.617,19.617,0,0,1,31.74,15.423Z" transform="translate(-37.497 0)" fill="#f79e1b"/>
          <path id="Path_5501" data-name="Path 5501" d="M133.926,68.41v-.631h.254V67.65h-.648v.129h.254v.631Zm1.259,0v-.761h-.2l-.229.524-.229-.524h-.2v.761h.14v-.574l.215.5h.145l.215-.5v.575Z" transform="translate(-72.316 -36.636)" fill="#f79e1b"/>
        </g>
      </g>
    </g>
  </g>
</svg>
