<svg xmlns="http://www.w3.org/2000/svg" width="33.79" height="39.575" viewBox="0 0 33.79 39.575">
  <g id="ICON-Paypal" transform="translate(16.895 19.788)">
    <g id="Group_1627" data-name="Group 1627" transform="translate(-16.895 -19.788)">
      <path id="Path_5493" data-name="Path 5493" d="M45.908,27.373a5.846,5.846,0,0,0-2.947-4.006c-.065-.037-.127-.079-.19-.118l0,0c0-.007,0-.014,0-.021l-.137-.059c-.1-.041-.193-.082-.287-.129a8.387,8.387,0,0,0-1.529-.542,15.048,15.048,0,0,0-2.384-.42c-.211-.023-.422-.037-.633-.051l-.223-.015c-.3-.022-.636-.033-1.018-.034q-3.379-.011-6.757-.007H26.642a1.732,1.732,0,0,0-.428.049,1.575,1.575,0,0,0-1.224,1.344L23.254,34.339c-.06.374-.123.748-.185,1.121l-.115.689a.135.135,0,0,0,.037.146L23,36.3a9.547,9.547,0,0,0-.264,1.381c-.085.48-.148.964-.225,1.446-.1.624-.2,1.247-.3,1.87q-.1.611-.2,1.223-.108.672-.214,1.343c-.086.55-.168,1.1-.255,1.651s-.177,1.087-.265,1.631q-.125.773-.249,1.547-.163,1.041-.326,2.082c-.067.432-.14.864-.2,1.3a.846.846,0,0,0,.243.712.953.953,0,0,0,.73.3h4.861c.513,0,1.026,0,1.539,0a1.548,1.548,0,0,0,1.511-1.211l1.372-8.475A1.552,1.552,0,0,1,32.3,41.787c.271,0,.542,0,.813,0a19.484,19.484,0,0,0,3.067-.207,13.613,13.613,0,0,0,2.935-.766,10.077,10.077,0,0,0,3.419-2.177,10.529,10.529,0,0,0,2.337-3.479,15.882,15.882,0,0,0,1.225-5.292A8.93,8.93,0,0,0,45.908,27.373Z" transform="translate(-12.32 -13.206)" fill="#0093c7"/>
      <g id="Group_1625" data-name="Group 1625" transform="translate(0 0)">
        <path id="Path_5494" data-name="Path 5494" d="M30.422,6.078A7.037,7.037,0,0,0,27.1,1.631,10.6,10.6,0,0,0,23.774.411,20.44,20.44,0,0,0,19.6,0Q13.28-.006,6.958,0a2.139,2.139,0,0,0-.327.025A1.765,1.765,0,0,0,5.179,1.441c-.061.345-.113.693-.168,1.039l-5,31.464a1.054,1.054,0,0,0,.824,1.214,1.533,1.533,0,0,0,.343.026H6.146l2.56,0q.124-.774.249-1.547c.088-.544.178-1.087.265-1.631s.169-1.1.255-1.651q.105-.672.214-1.343.1-.611.2-1.223c.1-.623.2-1.246.3-1.87.076-.482.14-.966.225-1.446a9.548,9.548,0,0,1,.264-1.381l.012.01.075-.144a1.728,1.728,0,0,1,1.026-.874,2.063,2.063,0,0,1,.64-.091l1.839,0,1.622,0a22.445,22.445,0,0,0,2.4-.105c.69-.073,1.3-.164,1.86-.277a13.608,13.608,0,0,0,4.217-1.546,11.179,11.179,0,0,0,3.291-2.9,13.461,13.461,0,0,0,2.01-3.829,18.955,18.955,0,0,0,.686-2.585l.032-.153a2.193,2.193,0,0,0,.065-.562l0,0a.646.646,0,0,0,.017-.066,13.938,13.938,0,0,0,.162-1.858A7.813,7.813,0,0,0,30.422,6.078Z" transform="translate(0 0)" fill="#23346d"/>
      </g>
      <g id="Group_1626" data-name="Group 1626" transform="translate(0)">
        <path id="Path_5495" data-name="Path 5495" d="M10.953,21.137c-.1.6-.2,1.207-.3,1.81-.008.044-.016.093.029.127a9.245,9.245,0,0,0-.27,1.4c-.085.48-.148.964-.225,1.446-.1.624-.2,1.247-.3,1.87q-.1.611-.2,1.223c-.072.448-.144.9-.214,1.343-.086.55-.168,1.1-.256,1.651s-.177,1.087-.264,1.631q-.125.773-.249,1.547l-2.56,0H1.182a1.531,1.531,0,0,1-.343-.026,1.054,1.054,0,0,1-.824-1.214l5-31.464c.055-.347.107-.694.168-1.039A1.765,1.765,0,0,1,6.631.026,2.13,2.13,0,0,1,6.958,0Q13.28,0,19.6,0a20.44,20.44,0,0,1,4.171.407A10.608,10.608,0,0,1,27.1,1.631a7.037,7.037,0,0,1,3.323,4.447,7.813,7.813,0,0,1,.207,2.04,13.938,13.938,0,0,1-.162,1.858.556.556,0,0,1-.017.066l-.012,0c-.142-.062-.287-.119-.426-.188a8.387,8.387,0,0,0-1.525-.54,14.952,14.952,0,0,0-2.381-.419c-.284-.032-.571-.045-.856-.066-.337-.024-.678-.033-1.016-.034-3.3-.01-6.606-.006-9.909-.008a1.7,1.7,0,0,0-.426.048,1.548,1.548,0,0,0-1.21,1.328Z" transform="translate(0 0)" fill="#23346d"/>
      </g>
      <path id="Path_5496" data-name="Path 5496" d="M46.4,23.809a2.193,2.193,0,0,0,.065-.562c0-.007,0-.014,0-.021l-.137-.059c-.1-.041-.193-.082-.287-.129a8.387,8.387,0,0,0-1.529-.542,15.048,15.048,0,0,0-2.384-.42c-.211-.023-.422-.037-.633-.051l-.223-.015c-.3-.022-.636-.033-1.018-.034q-3.379-.011-6.757-.007H30.337a1.732,1.732,0,0,0-.428.049,1.575,1.575,0,0,0-1.224,1.344L26.948,34.339c-.06.374-.123.748-.185,1.121l-.115.689a.135.135,0,0,0,.037.146l.006.005.012.01.075-.144a1.728,1.728,0,0,1,1.026-.874,2.063,2.063,0,0,1,.64-.091l1.839,0,1.622,0a22.444,22.444,0,0,0,2.4-.105c.69-.073,1.3-.164,1.86-.277a13.609,13.609,0,0,0,4.217-1.546,11.179,11.179,0,0,0,3.291-2.9,13.461,13.461,0,0,0,2.01-3.829,18.954,18.954,0,0,0,.686-2.585Z" transform="translate(-16.015 -13.206)" fill="#1d2653"/>
    </g>
  </g>
</svg>
