<svg xmlns="http://www.w3.org/2000/svg" xmlns:xlink="http://www.w3.org/1999/xlink" width="87.249" height="83.931" viewBox="0 0 87.249 83.931">
  <defs>
    <linearGradient id="linear-gradient" x1="0.5" y1="-0.326" x2="0.5" y2="1.345" gradientUnits="objectBoundingBox">
      <stop offset="0" stop-color="#282882"/>
      <stop offset="0.096" stop-color="#292c84"/>
      <stop offset="0.197" stop-color="#2f388c"/>
      <stop offset="0.299" stop-color="#374d99"/>
      <stop offset="0.403" stop-color="#446aac"/>
      <stop offset="0.489" stop-color="#5189bf"/>
      <stop offset="0.605" stop-color="#3a5b98"/>
      <stop offset="0.725" stop-color="#263477"/>
      <stop offset="0.835" stop-color="#18175f"/>
      <stop offset="0.93" stop-color="#100651"/>
      <stop offset="1" stop-color="#0d004c"/>
    </linearGradient>
    <filter id="Path_5940" x="0" y="0" width="87.249" height="83.931" filterUnits="userSpaceOnUse">
      <feOffset dy="2.628" input="SourceAlpha"/>
      <feGaussianBlur stdDeviation="1.064" result="blur"/>
      <feFlood flood-color="#45455e" flood-opacity="0.302"/>
      <feComposite operator="in" in2="blur"/>
      <feComposite in="SourceGraphic"/>
    </filter>
    <linearGradient id="linear-gradient-2" x1="0.5" y1="-9.951" x2="0.5" y2="6.422" gradientUnits="objectBoundingBox">
      <stop offset="0" stop-color="#282882"/>
      <stop offset="0.1" stop-color="#292c84"/>
      <stop offset="0.205" stop-color="#2f388c"/>
      <stop offset="0.312" stop-color="#374d99"/>
      <stop offset="0.42" stop-color="#446aac"/>
      <stop offset="0.51" stop-color="#5189bf"/>
      <stop offset="0.621" stop-color="#3a5b98"/>
      <stop offset="0.736" stop-color="#263477"/>
      <stop offset="0.841" stop-color="#18175f"/>
      <stop offset="0.933" stop-color="#100651"/>
      <stop offset="1" stop-color="#0d004c"/>
    </linearGradient>
    <linearGradient id="linear-gradient-3" x1="0.5" y1="-12.89" x2="0.5" y2="9.648" xlink:href="#linear-gradient-2"/>
    <linearGradient id="linear-gradient-4" x1="0.5" y1="-12.463" x2="0.5" y2="10.894" xlink:href="#linear-gradient-2"/>
    <linearGradient id="linear-gradient-5" x1="0.5" y1="-36.507" x2="0.5" y2="35.093" xlink:href="#linear-gradient-2"/>
    <linearGradient id="linear-gradient-6" x1="0.5" y1="-11.519" x2="0.5" y2="13.475" xlink:href="#linear-gradient-2"/>
    <linearGradient id="linear-gradient-7" x1="0.5" y1="-9.539" x2="0.5" y2="13.749" xlink:href="#linear-gradient-2"/>
    <linearGradient id="linear-gradient-8" x1="0.5" y1="-8.336" x2="0.5" y2="13.965" xlink:href="#linear-gradient-2"/>
    <linearGradient id="linear-gradient-9" x1="0.5" y1="-6.407" x2="0.5" y2="14.183" xlink:href="#linear-gradient-2"/>
    <linearGradient id="linear-gradient-10" x1="0.5" y1="-5.127" x2="0.5" y2="12.979" xlink:href="#linear-gradient-2"/>
    <linearGradient id="linear-gradient-11" x1="0.5" y1="-6.089" x2="0.5" y2="16.078" xlink:href="#linear-gradient-2"/>
    <linearGradient id="linear-gradient-12" x1="0.5" y1="-6.378" x2="0.5" y2="16.882" xlink:href="#linear-gradient-2"/>
    <linearGradient id="linear-gradient-13" x1="0.5" y1="-6.671" x2="0.5" y2="16.668" xlink:href="#linear-gradient-2"/>
    <linearGradient id="linear-gradient-14" x1="0.5" y1="-7.167" x2="0.5" y2="16.359" xlink:href="#linear-gradient-2"/>
    <linearGradient id="linear-gradient-15" x1="0.5" y1="-7.734" x2="0.5" y2="14.582" xlink:href="#linear-gradient-2"/>
    <linearGradient id="linear-gradient-16" x1="0.5" y1="-9.267" x2="0.5" y2="14.23" xlink:href="#linear-gradient-2"/>
    <linearGradient id="linear-gradient-17" x1="0.5" y1="-9.845" x2="0.5" y2="12.963" xlink:href="#linear-gradient-2"/>
    <linearGradient id="linear-gradient-18" x1="0.5" y1="-10.431" x2="0.5" y2="11.491" xlink:href="#linear-gradient-2"/>
    <linearGradient id="linear-gradient-19" x1="0.5" y1="-11.2" x2="0.5" y2="10.154" xlink:href="#linear-gradient-2"/>
    <linearGradient id="linear-gradient-20" x1="0.5" y1="-14.71" x2="0.5" y2="10.842" xlink:href="#linear-gradient-2"/>
    <linearGradient id="linear-gradient-21" x1="0.5" y1="-18.616" x2="0.5" y2="12.471" xlink:href="#linear-gradient-2"/>
    <linearGradient id="linear-gradient-22" x1="0.5" y1="-12.114" x2="0.5" y2="7.624" xlink:href="#linear-gradient-2"/>
    <linearGradient id="linear-gradient-23" x1="0.5" y1="-1.25" x2="0.5" y2="2.289" xlink:href="#linear-gradient"/>
  </defs>
  <g id="Group_1716" data-name="Group 1716" transform="translate(-631.752 -115.071)">
    <g transform="matrix(1, 0, 0, 1, 631.75, 115.07)" filter="url(#Path_5940)">
      <path id="Path_5940-2" data-name="Path 5940" d="M715.621,154.409c0,4.179-3.591,7.74-4.816,11.512-1.269,3.908-.5,8.892-2.868,12.145-2.391,3.286-7.384,4.084-10.67,6.475-3.254,2.368-5.542,6.883-9.451,8.153-3.771,1.224-8.26-1.044-12.439-1.044s-8.668,2.268-12.44,1.043c-3.908-1.269-6.2-5.785-9.45-8.152-3.286-2.392-8.279-3.189-10.671-6.475-2.367-3.254-1.6-8.237-2.868-12.146-1.224-3.771-4.816-7.332-4.816-11.511s3.592-7.741,4.816-11.512c1.27-3.909.5-8.892,2.869-12.146,2.391-3.286,7.384-4.083,10.67-6.475,3.253-2.367,5.542-6.883,9.451-8.152,3.771-1.225,8.259,1.043,12.439,1.043s8.668-2.268,12.439-1.043c3.909,1.269,6.2,5.785,9.451,8.153,3.286,2.391,8.279,3.189,10.67,6.475,2.368,3.253,1.6,8.236,2.868,12.145C712.03,146.668,715.621,150.229,715.621,154.409Z" transform="translate(-631.75 -115.07)" stroke="#707070" stroke-width="0.375" fill="url(#linear-gradient)"/>
    </g>
    <circle id="Ellipse_11" data-name="Ellipse 11" cx="32.801" cy="32.801" r="32.801" transform="translate(642.576 121.607)" fill="#fff" stroke="#707070" stroke-width="0.751"/>
    <g id="Group_1713" data-name="Group 1713">
      <path id="Path_5941" data-name="Path 5941" d="M661.542,173.14l-3.639,3.793-.726-.7.954-4.225.384.369-4.15,1.158-.731-.7,3.639-3.792.818.786-2.417,2.539-.162-.155,3.316-.9.39.374-.743,3.366-.178-.172,2.427-2.529Z" fill="url(#linear-gradient-2)"/>
      <path id="Path_5942" data-name="Path 5942" d="M655.448,165.907a3.187,3.187,0,0,1,.4,1.1,2.782,2.782,0,0,1-.035,1.078,2.579,2.579,0,0,1-.445.955,2.854,2.854,0,0,1-1.875,1.086,2.611,2.611,0,0,1-1.047-.093,2.8,2.8,0,0,1-.951-.5,3.126,3.126,0,0,1-.748-.89,3.2,3.2,0,0,1-.4-1.091,2.741,2.741,0,0,1,.034-1.073,2.586,2.586,0,0,1,.445-.955,2.863,2.863,0,0,1,1.881-1.089,2.577,2.577,0,0,1,1.053.089,2.73,2.73,0,0,1,.948.506A3.18,3.18,0,0,1,655.448,165.907Zm-.887.522a1.661,1.661,0,0,0-.432-.5,1.574,1.574,0,0,0-.567-.275,1.638,1.638,0,0,0-.636-.035,1.921,1.921,0,0,0-1.177.681,1.641,1.641,0,0,0-.286.569,1.565,1.565,0,0,0-.044.628,1.647,1.647,0,0,0,.218.624,1.7,1.7,0,0,0,.434.5,1.543,1.543,0,0,0,.567.276,1.668,1.668,0,0,0,.635.032,1.8,1.8,0,0,0,.65-.234,1.769,1.769,0,0,0,.525-.447,1.662,1.662,0,0,0,.289-.566,1.527,1.527,0,0,0,.044-.628A1.682,1.682,0,0,0,654.561,166.429Z" fill="url(#linear-gradient-3)"/>
      <path id="Path_5943" data-name="Path 5943" d="M653.339,161.357l-4.427,3.633-.363-1.271,3.93-3.186.213.744-5.029-.654-.332-1.163,5.678.742Z" fill="url(#linear-gradient-4)"/>
      <path id="Path_5944" data-name="Path 5944" d="M652.5,157.612l-5.222.588-.137-1.217,5.223-.587Z" fill="url(#linear-gradient-5)"/>
      <path id="Path_5945" data-name="Path 5945" d="M652.173,155.235l-5.243-.359.069-1,3.986-2.835-.033.487-3.776-.258.082-1.2,5.244.359-.069,1-3.987,2.836.034-.487,3.775.258Z" fill="url(#linear-gradient-6)"/>
      <path id="Path_5946" data-name="Path 5946" d="M653.6,146.969a3.225,3.225,0,0,1-.547,1.029,2.61,2.61,0,0,1-1.828.985,2.714,2.714,0,0,1-1.1-.135,2.75,2.75,0,0,1-.968-.543,2.575,2.575,0,0,1-.632-.843,2.732,2.732,0,0,1-.254-1.047,3.5,3.5,0,0,1,.784-2.283,2.49,2.49,0,0,1,.936-.685l.444.959a1.937,1.937,0,0,0-.628.458,1.966,1.966,0,0,0-.468,1.356,1.606,1.606,0,0,0,.162.626,1.556,1.556,0,0,0,.4.5,1.838,1.838,0,0,0,.611.331,1.812,1.812,0,0,0,.677.091,1.55,1.55,0,0,0,.62-.168,1.662,1.662,0,0,0,.5-.4,1.785,1.785,0,0,0,.334-.613,2.1,2.1,0,0,0,.105-.705,2.061,2.061,0,0,0-.172-.755l1.051-.383a3.116,3.116,0,0,1,.163,1.1A3.9,3.9,0,0,1,653.6,146.969Zm-.469-1.221-1.876-.615.346-1.056,2.026.664Z" fill="url(#linear-gradient-7)"/>
      <path id="Path_5947" data-name="Path 5947" d="M654.25,144.612l-3.206-4.775.64-1.017,5.7.8-.68,1.081-4.954-.837.259-.413,2.9,4.1Zm-.326-1.6-.617-.752,1.447-2.3.949.225Z" fill="url(#linear-gradient-8)"/>
      <path id="Path_5948" data-name="Path 5948" d="M661.071,136.391a2.382,2.382,0,0,1-1.756.6,2.406,2.406,0,0,1-1.607-1l-1.828-2.3.957-.763,1.81,2.274a1.559,1.559,0,0,0,.912.651,1.105,1.105,0,0,0,.878-.271,1.119,1.119,0,0,0,.468-.8,1.562,1.562,0,0,0-.431-1.034l-1.809-2.273.933-.744,1.829,2.3a2.4,2.4,0,0,1,.619,1.791A2.367,2.367,0,0,1,661.071,136.391Z" fill="url(#linear-gradient-9)"/>
      <path id="Path_5949" data-name="Path 5949" d="M663.72,134.245l-2.031-4.848.928-.389,3.5,2.557-.492.206.589-4.269.935-.391,2.031,4.847-1.046.438-1.369-3.228.208-.087-.5,3.4-.5.209-2.793-2.021.229-.1,1.355,3.233Z" fill="url(#linear-gradient-10)"/>
      <path id="Path_5950" data-name="Path 5950" d="M669.942,131.845l-.11-.781,2.675-4.332.21.417-3.308.465-.138-.982,4.379-.614.11.781-2.668,4.331-.21-.418,3.472-.487.138.982Z" fill="url(#linear-gradient-11)"/>
      <path id="Path_5951" data-name="Path 5951" d="M677.462,131.494a2.379,2.379,0,0,1-1.686-.778,2.4,2.4,0,0,1-.467-1.837l.265-2.923,1.218.11-.261,2.894a1.563,1.563,0,0,0,.209,1.1,1.275,1.275,0,0,0,1.713.154,1.562,1.562,0,0,0,.4-1.045l.262-2.893,1.189.107-.265,2.924a2.4,2.4,0,0,1-.788,1.722A2.372,2.372,0,0,1,677.462,131.494Z" fill="url(#linear-gradient-12)"/>
      <path id="Path_5952" data-name="Path 5952" d="M683.24,132.777a3.229,3.229,0,0,1-1.019-.567,2.617,2.617,0,0,1-.949-1.847,2.876,2.876,0,0,1,.718-2.055,2.569,2.569,0,0,1,.855-.616,2.73,2.73,0,0,1,1.052-.233,3.478,3.478,0,0,1,2.267.828,2.488,2.488,0,0,1,.667.948l-.968.426a1.931,1.931,0,0,0-.445-.637,1.979,1.979,0,0,0-1.347-.494,1.619,1.619,0,0,0-.629.15,1.577,1.577,0,0,0-.509.387,1.841,1.841,0,0,0-.342.6,1.8,1.8,0,0,0-.1.676,1.528,1.528,0,0,0,.156.623,1.651,1.651,0,0,0,.394.511,1.791,1.791,0,0,0,.606.347,2.122,2.122,0,0,0,.7.118,2.05,2.05,0,0,0,.758-.157l.363,1.057a3.11,3.11,0,0,1-1.107.143A3.915,3.915,0,0,1,683.24,132.777Zm1.23-.446.65-1.864,1.049.366-.7,2.013Z" fill="url(#linear-gradient-13)"/>
      <path id="Path_5953" data-name="Path 5953" d="M687.576,134.89a4.288,4.288,0,0,1-.937-.788,2.8,2.8,0,0,1-.558-.869l.836-.556a2.907,2.907,0,0,0,.465.757,2.952,2.952,0,0,0,.713.629,1.839,1.839,0,0,0,.533.246.718.718,0,0,0,.382,0,.43.43,0,0,0,.243-.189.4.4,0,0,0,.037-.37,1.341,1.341,0,0,0-.264-.406c-.127-.141-.269-.29-.425-.444s-.31-.319-.458-.492a2.621,2.621,0,0,1-.366-.548,1.273,1.273,0,0,1-.133-.607,1.328,1.328,0,0,1,.229-.667,1.481,1.481,0,0,1,.641-.569,1.642,1.642,0,0,1,.935-.113,3.01,3.01,0,0,1,1.163.469,4.015,4.015,0,0,1,.766.623,2.891,2.891,0,0,1,.532.742l-.811.572a3.032,3.032,0,0,0-.456-.645,2.724,2.724,0,0,0-.556-.469,1.738,1.738,0,0,0-.532-.241.667.667,0,0,0-.383.012.486.486,0,0,0-.246.2.408.408,0,0,0-.04.374,1.213,1.213,0,0,0,.263.4c.127.136.272.283.433.44s.314.323.46.5a2.975,2.975,0,0,1,.36.541,1.222,1.222,0,0,1-.077,1.268,1.439,1.439,0,0,1-.639.557,1.708,1.708,0,0,1-.942.109A3,3,0,0,1,687.576,134.89Z" fill="url(#linear-gradient-14)"/>
      <path id="Path_5954" data-name="Path 5954" d="M693.233,139.889a3.194,3.194,0,0,1-.582-1.009,2.612,2.612,0,0,1,.134-2.072,2.878,2.878,0,0,1,1.671-1.4,2.579,2.579,0,0,1,1.051-.089,2.731,2.731,0,0,1,1.022.34,3.494,3.494,0,0,1,1.52,1.876,2.487,2.487,0,0,1,.085,1.156l-1.049-.132a1.941,1.941,0,0,0-.055-.776,1.974,1.974,0,0,0-.9-1.115,1.583,1.583,0,0,0-.616-.194,1.539,1.539,0,0,0-.636.07,1.912,1.912,0,0,0-1.041.868,1.546,1.546,0,0,0-.185.615,1.661,1.661,0,0,0,.074.641,1.823,1.823,0,0,0,.343.609,2.014,2.014,0,0,0,1.273.718l-.232,1.093a3.138,3.138,0,0,1-1.024-.447A3.916,3.916,0,0,1,693.233,139.889Zm1.284.25,1.517-1.265.712.853-1.638,1.366Z" fill="url(#linear-gradient-15)"/>
      <path id="Path_5955" data-name="Path 5955" d="M694.883,141.676l5.747-.2.525,1.081-3.7,4.416-.558-1.148,3.331-3.763.213.439-5.017.292Zm1.528.568.965-.127,1.188,2.445-.693.687Z" fill="url(#linear-gradient-16)"/>
      <path id="Path_5956" data-name="Path 5956" d="M697.5,147.4l5.136-1.113.482,2.223a2.949,2.949,0,0,1,.033,1.237,1.773,1.773,0,0,1-.475.91,1.994,1.994,0,0,1-1.984.43,1.747,1.747,0,0,1-.8-.633,3.076,3.076,0,0,1-.474-1.142l-.34-1.571.632.432-1.952.423Zm.709,3.273,1.584-1.695.277,1.276-1.584,1.7Zm1.37-2.471.447-.665.326,1.5a1.285,1.285,0,0,0,.413.772.833.833,0,0,0,.721.135.824.824,0,0,0,.6-.421,1.293,1.293,0,0,0,.053-.872l-.326-1.5.683.421Z" fill="url(#linear-gradient-17)"/>
      <path id="Path_5957" data-name="Path 5957" d="M698.543,152l5.2,2.456-.028,1.2-5.309,2.235.03-1.276,4.683-1.822-.011.488-4.594-2.036Zm1.1,1.205.916.328-.063,2.718-.93.294Z" fill="url(#linear-gradient-18)"/>
      <path id="Path_5958" data-name="Path 5958" d="M698.281,158.284l5.064,1.4-.268.97-4.476,1.976.131-.47,3.646,1.012-.321,1.157-5.065-1.4.27-.97,4.475-1.976-.131.471-3.646-1.012Z" fill="url(#linear-gradient-19)"/>
      <path id="Path_5959" data-name="Path 5959" d="M695.977,164.9l3.748,2.035.8-1.478.871.473-2.186,4.025-.871-.473.8-1.478-3.748-2.035Z" fill="url(#linear-gradient-20)"/>
      <path id="Path_5960" data-name="Path 5960" d="M694.156,167.887l4.183,3.181-.74.974-4.184-3.181Z" fill="url(#linear-gradient-21)"/>
      <path id="Path_5961" data-name="Path 5961" d="M692.5,171.351l-2.069,1.974-.674-.705,2.944-2.81,3.628,3.8-2.873,2.742-.674-.706,2-1.908Zm1.563,1.507-1.83,1.747-.658-.69,1.83-1.747Z" fill="url(#linear-gradient-22)"/>
    </g>
    <circle id="Ellipse_12" data-name="Ellipse 12" cx="18.248" cy="18.248" r="18.248" transform="translate(657.129 136.16)" stroke="#707070" stroke-width="0.375" fill="url(#linear-gradient-23)"/>
    <g id="MOV_Pin" data-name="MOV Pin">
      <g id="Group_1715" data-name="Group 1715">
        <g id="Group_1714" data-name="Group 1714">
          <path id="Path_5962" data-name="Path 5962" d="M675.183,157.113a5.389,5.389,0,1,1,5.389-5.389,5.4,5.4,0,0,1-5.389,5.389m0-17.108a12.113,12.113,0,0,0-12.044,13.7c.974,7.369,12.044,15.517,12.044,15.517,4.837-3.636,12.174-10.713,12.174-17.043a12.138,12.138,0,0,0-12.174-12.174" fill="#fff" stroke="#707070" stroke-width="0.375"/>
        </g>
      </g>
    </g>
  </g>
</svg>
