<svg xmlns="http://www.w3.org/2000/svg" width="70.238" height="22.684" viewBox="0 0 70.238 22.684">
  <g id="ICON-Visa" transform="translate(35.119 11.342)">
    <path id="Path_5497" data-name="Path 5497" d="M26.668.4l-9.2,21.94h-6L6.948,4.832A2.4,2.4,0,0,0,5.6,2.9,23.771,23.771,0,0,0,0,1.038L.135.4H9.792a2.645,2.645,0,0,1,2.617,2.237l2.39,12.7L20.706.4ZM50.175,15.177c.024-5.79-8.007-6.11-7.952-8.7.017-.787.767-1.624,2.408-1.838a10.7,10.7,0,0,1,5.6.982l1-4.652A15.251,15.251,0,0,0,45.914,0c-5.61,0-9.557,2.982-9.591,7.252-.036,3.159,2.818,4.921,4.968,5.971,2.212,1.075,2.954,1.765,2.946,2.727-.016,1.472-1.764,2.122-3.4,2.147a11.89,11.89,0,0,1-5.828-1.386l-1.029,4.807a17.207,17.207,0,0,0,6.312,1.166c5.963,0,9.863-2.945,9.881-7.506m14.813,7.163h5.249L65.656.4H60.811A2.583,2.583,0,0,0,58.4,2.01l-8.517,20.33h5.959l1.184-3.277H64.3Zm-6.332-7.774,2.987-8.238,1.719,8.238ZM34.777.4l-4.693,21.94H24.409L29.1.4Z" transform="translate(-35.119 -11.342)" fill="#1434cb"/>
  </g>
</svg>
