<svg xmlns="http://www.w3.org/2000/svg" width="88.163" height="15" viewBox="0 0 88.163 15">
  <g id="Vorkasse" transform="translate(44.081 7.5)">
    <g id="Group_2000" data-name="Group 2000" transform="translate(-44.081 -7.5)">
      <path id="Path_6920" data-name="Path 6920" d="M3.525,1.011,6.911,11.516,10.258,1.011h3.5l-5.228,14.4H5.268L0,1.011Z" transform="translate(0 -0.605)"/>
      <path id="Path_6921" data-name="Path 6921" d="M33.026,15.378a5.769,5.769,0,0,1,.386-2.1,5.517,5.517,0,0,1,1.094-1.762,5,5,0,0,1,1.8-1.218,6.3,6.3,0,0,1,2.421-.45,6.237,6.237,0,0,1,2.406.45,5.065,5.065,0,0,1,1.8,1.218,5.481,5.481,0,0,1,1.1,1.762,5.9,5.9,0,0,1,0,4.2,5.465,5.465,0,0,1-1.094,1.757,5.032,5.032,0,0,1-1.8,1.213,6.719,6.719,0,0,1-4.837,0,5.029,5.029,0,0,1-1.8-1.213,5.465,5.465,0,0,1-1.094-1.757A5.741,5.741,0,0,1,33.026,15.378Zm5.7,2.782a2.115,2.115,0,0,0,1.678-.782,2.972,2.972,0,0,0,.669-2,2.959,2.959,0,0,0-.663-2,2.128,2.128,0,0,0-1.683-.767,2.16,2.16,0,0,0-1.7.777,2.922,2.922,0,0,0-.678,1.995,2.947,2.947,0,0,0,.673,2.01A2.161,2.161,0,0,0,38.729,18.16Z" transform="translate(-19.771 -5.893)"/>
      <path id="Path_6922" data-name="Path 6922" d="M72.226,12.883a5.976,5.976,0,0,0-2.158.4,2.664,2.664,0,0,0-1.357,1.084v6.386H65.474V10.11h2.98v2.148a4.756,4.756,0,0,1,1.416-1.683,3.107,3.107,0,0,1,1.822-.634,4.3,4.3,0,0,1,.535.02Z" transform="translate(-39.196 -5.952)"/>
      <path id="Path_6923" data-name="Path 6923" d="M92.336,14.8l-2.783-4.258L88.415,11.7v3.1H85.178V0h3.237V8.554l3.614-4.4h3.426L91.623,8.743l4.159,6.06Z" transform="translate(-50.992)"/>
      <path id="Path_6924" data-name="Path 6924" d="M111.608,17.507a3.086,3.086,0,0,1,1.277-2.56,5.261,5.261,0,0,1,3.307-.985,5.99,5.99,0,0,1,2.376.426v-.466q0-1.8-2.139-1.8a4.762,4.762,0,0,0-1.639.282,7.937,7.937,0,0,0-1.678.886l-.98-2.059a8.31,8.31,0,0,1,4.624-1.386A5.491,5.491,0,0,1,120.485,11a4.16,4.16,0,0,1,1.322,3.312v2.772a1.169,1.169,0,0,0,.153.688.71.71,0,0,0,.54.233v2.693a6.732,6.732,0,0,1-1.377.158q-1.732,0-1.99-1.356l-.059-.466a4.781,4.781,0,0,1-1.688,1.381,4.66,4.66,0,0,1-2.065.48,3.778,3.778,0,0,1-2.653-.97A3.142,3.142,0,0,1,111.608,17.507Zm6.446.406a1.129,1.129,0,0,0,.515-.832v-.95a5.582,5.582,0,0,0-1.832-.346,2.545,2.545,0,0,0-1.485.406,1.225,1.225,0,0,0-.144,1.985,1.688,1.688,0,0,0,1.164.391,2.759,2.759,0,0,0,.965-.178A2.576,2.576,0,0,0,118.054,17.913Z" transform="translate(-66.814 -5.893)"/>
      <path id="Path_6925" data-name="Path 6925" d="M145.923,20.893a7.936,7.936,0,0,1-2.678-.456,5.906,5.906,0,0,1-2.164-1.307l1.109-2.05a6.305,6.305,0,0,0,3.633,1.446q1.317,0,1.317-.832a.73.73,0,0,0-.515-.653q-.257-.119-1.326-.446-.585-.2-.976-.336t-.812-.327a4.882,4.882,0,0,1-.679-.357,4.158,4.158,0,0,1-.51-.4,1.772,1.772,0,0,1-.386-.48,2.486,2.486,0,0,1-.213-.574,2.952,2.952,0,0,1-.08-.708,3.178,3.178,0,0,1,1.208-2.589,4.967,4.967,0,0,1,3.238-.985,5.873,5.873,0,0,1,4.089,1.505l-1.258,2.03a5.531,5.531,0,0,0-3-1.2,1.753,1.753,0,0,0-.916.208.7.7,0,0,0-.341.644.692.692,0,0,0,.356.624,5.85,5.85,0,0,0,1.307.485q.733.228,1.208.391t.97.381a3.624,3.624,0,0,1,.782.445,3.36,3.36,0,0,1,.53.53,1.87,1.87,0,0,1,.346.683,3.255,3.255,0,0,1,.1.856,3.059,3.059,0,0,1-1.174,2.54A4.988,4.988,0,0,1,145.923,20.893Z" transform="translate(-84.458 -5.893)"/>
      <path id="Path_6926" data-name="Path 6926" d="M170.855,20.893a7.937,7.937,0,0,1-2.678-.456,5.9,5.9,0,0,1-2.163-1.307l1.109-2.05a6.306,6.306,0,0,0,3.634,1.446q1.317,0,1.317-.832a.73.73,0,0,0-.515-.653q-.258-.119-1.327-.446-.584-.2-.975-.336t-.812-.327a4.9,4.9,0,0,1-.678-.357,4.127,4.127,0,0,1-.51-.4,1.772,1.772,0,0,1-.386-.48,2.523,2.523,0,0,1-.213-.574,2.952,2.952,0,0,1-.079-.708,3.178,3.178,0,0,1,1.208-2.589,4.967,4.967,0,0,1,3.238-.985,5.874,5.874,0,0,1,4.089,1.505l-1.258,2.03a5.533,5.533,0,0,0-3-1.2,1.752,1.752,0,0,0-.916.208.7.7,0,0,0-.342.644.691.691,0,0,0,.356.624,5.849,5.849,0,0,0,1.307.485q.733.228,1.208.391t.97.381a3.635,3.635,0,0,1,.782.445,3.358,3.358,0,0,1,.53.53,1.857,1.857,0,0,1,.346.683,3.252,3.252,0,0,1,.1.856,3.058,3.058,0,0,1-1.174,2.54A4.987,4.987,0,0,1,170.855,20.893Z" transform="translate(-99.385 -5.893)"/>
      <path id="Path_6927" data-name="Path 6927" d="M196.994,20.893a6.367,6.367,0,0,1-2.4-.441,5.155,5.155,0,0,1-1.812-1.183,5.326,5.326,0,0,1-1.114-1.723,5.452,5.452,0,0,1-.4-2.059,6.039,6.039,0,0,1,.391-2.173,5.537,5.537,0,0,1,1.1-1.8,5.017,5.017,0,0,1,1.807-1.223,6.719,6.719,0,0,1,4.837,0,5,5,0,0,1,1.792,1.213,5.461,5.461,0,0,1,1.084,1.748,5.727,5.727,0,0,1,.381,2.084,7.124,7.124,0,0,1-.079,1.039h-7.872a2.2,2.2,0,0,0,.757,1.6,2.423,2.423,0,0,0,1.619.584,2.8,2.8,0,0,0,1.376-.356,1.859,1.859,0,0,0,.871-.921l2.762.772a4.874,4.874,0,0,1-1.98,2.059A6.144,6.144,0,0,1,196.994,20.893Zm-2.356-6.5h4.624a2.457,2.457,0,0,0-.738-1.6,2.353,2.353,0,0,0-3.149,0A2.456,2.456,0,0,0,194.638,14.388Z" transform="translate(-114.505 -5.893)"/>
    </g>
  </g>
</svg>
